<?xml version="1.0" encoding="UTF-8"?><svg id="Layer_1" xmlns="http://www.w3.org/2000/svg" width="128" height="128" viewBox="0 0 192.73 193.9"><defs><style>.cls-1{fill:#fdfefe;}.cls-2{fill:#2c3a6d;}.cls-3{fill:#c3c3c5;}</style></defs><path class="cls-2" d="M49.08,88.44c-4.03-7.22-8.95-13.26-14-19.2-7.53-8.86-16.05-16.7-24.78-24.33C2.56,38.15-1.85,30.16,.74,19.46,3.47,8.19,12.78,.48,24.75,.04c15.66-.58,28.78,5.69,40.44,15.59,4.66,3.96,8.9,8.38,12.5,13.33,1.18,1.63,2.18,1.91,4.01,1.22,8.8-3.33,17.33-2.34,25.6,1.9,1.13,.58,2.12,.89,3.47,.28,18.88-8.47,36.92-.25,48.37,14.02,8.3,10.35,12.5,22.57,15.66,35.23,2.73,10.91,4.99,21.9,4.72,33.25-.03,1.18,.04,2.15,1.26,2.83,14.88,8.22,14.86,26.56,5.5,38.58-11.42,14.68-26.15,25.1-42.96,32.68-7.07,3.19-14.35,5.71-22.34,4.74-12.18-1.48-20.15-9.92-20.55-22.21-.1-2.97-.94-3.92-3.92-4.37-22.6-3.4-44.04-10.3-63.55-22.45-8.86-5.52-16.21-12.53-18.59-23.3-3.01-13.63,3.69-24.71,17.52-29.7,5.43-1.96,11.11-2.35,17.2-3.22Zm-26.53,30.14v-.02c.34,6.56,4.18,11.22,8.99,14.83,21.19,15.88,45.78,22.73,71.5,26.43,2.26,.33,3.37-.63,4.37-2.45,2.65-4.82,6.34-8.57,11.6-10.55,1.71,1.5-.24,1.8-.86,2.36-3.27,2.93-6.15,6.1-7.42,10.45-6.37,11.04-.61,24.05,11.53,26.03,2.77,.45,5.48-.18,8.08-.88,12.2-3.26,22.91-9.48,32.77-17.21,7.34-5.75,14.53-11.73,19.09-20.18,3.1-5.75,2.66-14.38-.94-18.78-3.98-4.86-9.44-6.32-16.05-4.28-2.79,.54-5.58,1.07-9.43,1.81,4.31-3.21,7.85-5.49,12.1-6.18,2.79-.45,3.54-1.88,3.51-4.58-.07-8.65-1.22-17.15-3.11-25.56-3.07-13.68-6.82-27.08-15.51-38.48-8.08-10.6-18.49-15.49-31.88-13.08-7.43,1.34-7.48,1.34-4.26,8.04,1.76,3.67,2.84,7.33,1.26,11.37-1.72-.43-1.75-1.78-2.11-2.95-1.51-4.92-4.27-9.04-8.38-12.07-7.16-5.26-14.84-8.1-23.68-4.27-1.44,.63-2.53,1.21-1.24,2.92,.18,.31,.35,.62,.53,.93,.05,.18,.11,.35,.21,.5,.18,.35,.36,.69,.55,1.04,.04,.16,.11,.3,.21,.43,.29,4.1,3.05,7.75,2.18,12.06-.27-.21-.65-.36-.8-.64-5.71-10.69-12.73-20.5-20.99-29.28C53.68,15.02,40.9,7.68,24.71,8.3c-5.17,.2-9.66,2.08-12.65,6.63-5.6,6.9-5.23,14.98,1.35,21.37,7.76,7.53,16,14.56,23.36,22.51,10.53,11.38,19.7,23.69,26.18,37.89-2.48-.03-4.96-.05-7.44-.08-8.13-.1-16.11,.57-23.62,4.09-7.3,3.42-10.56,8.81-9.8,16.24-.18,.64-.11,1.2,.47,1.62Z"/><path class="cls-1" d="M110.72,159.63c1.27-4.35,4.15-7.52,7.42-10.45,.62-.56,2.57-.86,.86-2.36-2.19-1.45-4.31,.2-6.48,.2-14.13-.02-28.3,.72-42.27-2.23-18.53-3.91-35.77-10.23-47.72-26.22,0,0,0,.02,0,.02,.15-.63,.05-1.19-.47-1.62-.76-7.43,2.51-12.82,9.8-16.24,7.51-3.52,15.5-4.19,23.62-4.09,2.48,.03,4.96,.05,7.44,.08,2.05,1.58,4.56,1.9,6.96,2.2,3.57,.44,5.67-1.56,5.72-5.19,.04-3.34-1.2-6.34-2.84-9.14-5.92-10.11-14.73-17.35-24.04-24.06-9.86-7.1-19.94-13.87-28.56-22.6-6.4-6.48-10.44-13.53-8.13-22.99,2.99-4.56,7.48-6.43,12.65-6.63,16.19-.63,28.97,6.72,39.65,18.06,8.26,8.78,15.28,18.59,20.99,29.28,.15,.28,.53,.43,.8,.64,.23,.95,.32,1.97,.71,2.84,.42,.94,.63,2.53,2.06,2.2,1.4-.32,.94-1.82,.99-2.88,.28-5.69-1.92-10.35-5.94-14.23-.1-.13-.17-.27-.21-.43-.18-.35-.36-.69-.55-1.04-.09-.16-.16-.32-.21-.5-.18-.31-.35-.62-.53-.92-1.29-1.7-.2-2.29,1.24-2.92,8.85-3.84,16.53-1,23.68,4.27,4.11,3.03,6.88,7.15,8.38,12.07,.36,1.16,.39,2.52,2.11,2.95,1.58-4.03,.5-7.7-1.26-11.37-3.22-6.7-3.17-6.71,4.26-8.04,13.39-2.41,23.8,2.48,31.88,13.08,8.69,11.4,12.45,24.8,15.51,38.48,1.89,8.42,3.04,16.91,3.11,25.56,.02,2.7-.72,4.13-3.51,4.58-4.25,.68-7.79,2.97-12.1,6.18,3.85-.74,6.64-1.27,9.43-1.81,.74,.06,1.48,.12,2.22,.17,7.61,.48,11.57,4.67,11.37,12.24-.18,6.72-3.36,12.27-7.84,16.85-11.44,11.69-25.02,20-41.18,23.03-8.87,1.66-13.91,.48-17.76-6.4-1.88-3.37-1.01-7.06-1.29-10.61Zm16.42-93.65c.03-3.93-3.71-6.73-6.79-5.36-.92,.41-1.77,.9-1.96,2.03-.21,1.22,.52,1.83,1.48,2.26,1.15,.53,2.23,1.16,2.73,2.37,.47,1.12,.62,2.73,2.3,2.29,1.84-.48,2.01-2.28,2.24-3.6Zm17.9-.9c.88-.15,1.21-.88,1.57-1.71,.68-1.58,.87-3.12-.35-4.47-1.31-1.45-3.24-2.61-4.84-1.38-1.78,1.37-.03,2.77,1.07,3.87,.72,.72,1.21,1.51,1.28,2.56,.05,.66,.39,1.15,1.27,1.13Z"/><path class="cls-3" d="M12.06,14.94c-2.31,9.45,1.73,16.5,8.13,22.99,8.62,8.72,18.7,15.5,28.56,22.6,9.31,6.71,18.11,13.95,24.04,24.06,1.64,2.81,2.89,5.81,2.84,9.14-.05,3.63-2.15,5.63-5.72,5.19-2.41-.3-4.91-.62-6.96-2.2-6.47-14.2-15.65-26.51-26.18-37.89-7.36-7.96-15.6-14.98-23.36-22.51-6.58-6.39-6.95-14.47-1.35-21.37Z"/><path class="cls-3" d="M22.54,118.56c11.95,15.99,29.19,22.31,47.72,26.22,13.97,2.95,28.14,2.21,42.27,2.23,2.17,0,4.28-1.65,6.48-.2-5.25,1.98-8.94,5.73-11.6,10.55-1,1.82-2.1,2.77-4.37,2.45-25.72-3.7-50.3-10.55-71.5-26.43-4.81-3.6-8.65-8.27-9-14.83Z"/><path class="cls-3" d="M110.72,159.63c.28,3.56-.59,7.25,1.29,10.61,3.85,6.88,8.89,8.06,17.76,6.4,16.17-3.03,29.74-11.34,41.18-23.03,4.48-4.58,7.66-10.13,7.84-16.85,.2-7.57-3.76-11.76-11.37-12.24-.74-.05-1.48-.11-2.22-.17,6.61-2.04,12.07-.59,16.05,4.28,3.6,4.4,4.04,13.03,.94,18.78-4.55,8.44-11.74,14.42-19.09,20.18-9.86,7.72-20.57,13.95-32.77,17.21-2.6,.7-5.31,1.33-8.08,.88-12.14-1.98-17.9-14.99-11.53-26.03Z"/><path class="cls-3" d="M83.97,44.22c4.02,3.88,6.22,8.55,5.94,14.23-.05,1.05,.41,2.56-.99,2.88-1.43,.33-1.64-1.26-2.06-2.2-.39-.88-.49-1.89-.71-2.84,.87-4.31-1.89-7.96-2.18-12.06Z"/><path class="cls-3" d="M22.08,116.97c.53,.43,.63,.99,.47,1.62-.59-.41-.66-.98-.47-1.62Z"/><path class="cls-3" d="M82.47,41.32c.18,.31,.35,.62,.53,.92-.18-.31-.35-.62-.53-.92Z"/><path class="cls-3" d="M83.21,42.75c.18,.35,.36,.69,.55,1.04-.18-.35-.36-.69-.55-1.04Z"/><path class="cls-3" d="M127.15,65.98c-.23,1.33-.4,3.12-2.24,3.6-1.68,.44-1.84-1.17-2.3-2.29-.5-1.22-1.59-1.85-2.73-2.37-.95-.44-1.69-1.04-1.48-2.26,.19-1.13,1.04-1.62,1.96-2.03,3.08-1.37,6.82,1.43,6.79,5.36Z"/><path class="cls-3" d="M145.05,65.08c-.88,.02-1.22-.47-1.27-1.13-.07-1.05-.56-1.84-1.28-2.56-1.1-1.1-2.85-2.51-1.07-3.87,1.6-1.23,3.53-.06,4.84,1.38,1.22,1.35,1.02,2.88,.35,4.47-.36,.83-.69,1.57-1.57,1.71Z"/></svg>